<mxfile host="Electron" agent="Mozilla/5.0 (Windows NT 10.0; Win64; x64) AppleWebKit/537.36 (KHTML, like Gecko) draw.io/27.0.9 Chrome/134.0.6998.205 Electron/35.4.0 Safari/537.36" version="27.0.9">
  <diagram name="Page-1" id="0AC2P6nZiS8jiIFWmE1x">
    <mxGraphModel dx="1188" dy="701" grid="1" gridSize="10" guides="1" tooltips="1" connect="1" arrows="1" fold="1" page="1" pageScale="1" pageWidth="850" pageHeight="1100" math="0" shadow="0">
      <root>
        <mxCell id="0" />
        <mxCell id="1" parent="0" />
        <mxCell id="p5mmg8NYIvlORsanFq0I-1" value="&lt;font style=&quot;font-size: 35px;&quot;&gt;&lt;b style=&quot;&quot;&gt;Data Flow Diagram&lt;/b&gt;&lt;/font&gt;" style="text;html=1;align=center;verticalAlign=middle;whiteSpace=wrap;rounded=0;" parent="1" vertex="1">
          <mxGeometry x="10" y="30" width="370" height="20" as="geometry" />
        </mxCell>
        <mxCell id="p5mmg8NYIvlORsanFq0I-2" value="" style="rounded=0;whiteSpace=wrap;html=1;fillColor=none;dashed=1;" parent="1" vertex="1">
          <mxGeometry x="80" y="160" width="200" height="640" as="geometry" />
        </mxCell>
        <mxCell id="p5mmg8NYIvlORsanFq0I-3" value="&lt;font style=&quot;font-size: 24px;&quot;&gt;Sources&lt;/font&gt;" style="rounded=1;whiteSpace=wrap;html=1;fillColor=default;strokeColor=none;" parent="1" vertex="1">
          <mxGeometry x="120" y="130" width="120" height="60" as="geometry" />
        </mxCell>
        <mxCell id="p5mmg8NYIvlORsanFq0I-16" style="edgeStyle=orthogonalEdgeStyle;rounded=0;orthogonalLoop=1;jettySize=auto;html=1;entryX=0;entryY=0.5;entryDx=0;entryDy=0;" parent="1" source="p5mmg8NYIvlORsanFq0I-4" target="p5mmg8NYIvlORsanFq0I-13" edge="1">
          <mxGeometry relative="1" as="geometry" />
        </mxCell>
        <mxCell id="p5mmg8NYIvlORsanFq0I-17" style="edgeStyle=orthogonalEdgeStyle;rounded=0;orthogonalLoop=1;jettySize=auto;html=1;entryX=0;entryY=0.5;entryDx=0;entryDy=0;" parent="1" source="p5mmg8NYIvlORsanFq0I-4" target="p5mmg8NYIvlORsanFq0I-14" edge="1">
          <mxGeometry relative="1" as="geometry" />
        </mxCell>
        <mxCell id="p5mmg8NYIvlORsanFq0I-18" style="edgeStyle=orthogonalEdgeStyle;rounded=0;orthogonalLoop=1;jettySize=auto;html=1;entryX=0;entryY=0.5;entryDx=0;entryDy=0;" parent="1" source="p5mmg8NYIvlORsanFq0I-4" target="p5mmg8NYIvlORsanFq0I-15" edge="1">
          <mxGeometry relative="1" as="geometry" />
        </mxCell>
        <mxCell id="p5mmg8NYIvlORsanFq0I-4" value="&lt;font style=&quot;font-size: 20px;&quot;&gt;&lt;b&gt;CRM&lt;/b&gt;&lt;/font&gt;" style="image;aspect=fixed;html=1;points=[];align=center;fontSize=12;image=img/lib/azure2/general/Folder_Blank.svg;" parent="1" vertex="1">
          <mxGeometry x="145.5" y="332" width="69" height="56.00000000000001" as="geometry" />
        </mxCell>
        <mxCell id="p5mmg8NYIvlORsanFq0I-22" style="edgeStyle=orthogonalEdgeStyle;rounded=0;orthogonalLoop=1;jettySize=auto;html=1;entryX=0;entryY=0.5;entryDx=0;entryDy=0;" parent="1" source="p5mmg8NYIvlORsanFq0I-7" target="p5mmg8NYIvlORsanFq0I-19" edge="1">
          <mxGeometry relative="1" as="geometry" />
        </mxCell>
        <mxCell id="p5mmg8NYIvlORsanFq0I-23" style="edgeStyle=orthogonalEdgeStyle;rounded=0;orthogonalLoop=1;jettySize=auto;html=1;entryX=0;entryY=0.5;entryDx=0;entryDy=0;" parent="1" source="p5mmg8NYIvlORsanFq0I-7" target="p5mmg8NYIvlORsanFq0I-20" edge="1">
          <mxGeometry relative="1" as="geometry" />
        </mxCell>
        <mxCell id="p5mmg8NYIvlORsanFq0I-24" style="edgeStyle=orthogonalEdgeStyle;rounded=0;orthogonalLoop=1;jettySize=auto;html=1;entryX=0;entryY=0.5;entryDx=0;entryDy=0;" parent="1" source="p5mmg8NYIvlORsanFq0I-7" target="p5mmg8NYIvlORsanFq0I-21" edge="1">
          <mxGeometry relative="1" as="geometry" />
        </mxCell>
        <mxCell id="p5mmg8NYIvlORsanFq0I-7" value="&lt;font style=&quot;font-size: 20px;&quot;&gt;&lt;b&gt;ERP&lt;/b&gt;&lt;/font&gt;&lt;div&gt;&lt;font style=&quot;font-size: 20px;&quot;&gt;&lt;b&gt;&lt;br&gt;&lt;/b&gt;&lt;/font&gt;&lt;/div&gt;" style="image;aspect=fixed;html=1;points=[];align=center;fontSize=12;image=img/lib/azure2/general/Folder_Blank.svg;" parent="1" vertex="1">
          <mxGeometry x="145.5" y="532" width="69" height="56.00000000000001" as="geometry" />
        </mxCell>
        <mxCell id="p5mmg8NYIvlORsanFq0I-11" value="" style="rounded=1;whiteSpace=wrap;html=1;fillColor=none;strokeColor=#d79b00;" parent="1" vertex="1">
          <mxGeometry x="360" y="210" width="200" height="590" as="geometry" />
        </mxCell>
        <mxCell id="p5mmg8NYIvlORsanFq0I-12" value="&lt;font style=&quot;font-size: 20px;&quot;&gt;&lt;b&gt;Bronze Layer&lt;/b&gt;&lt;/font&gt;" style="rounded=1;whiteSpace=wrap;html=1;fillColor=#ffe6cc;strokeColor=#d79b00;" parent="1" vertex="1">
          <mxGeometry x="360" y="160" width="200" height="40" as="geometry" />
        </mxCell>
        <mxCell id="yiOfQxa3MnolgCykY1jI-9" value="" style="edgeStyle=orthogonalEdgeStyle;rounded=0;orthogonalLoop=1;jettySize=auto;html=1;" parent="1" source="p5mmg8NYIvlORsanFq0I-13" target="yiOfQxa3MnolgCykY1jI-3" edge="1">
          <mxGeometry relative="1" as="geometry" />
        </mxCell>
        <mxCell id="yiOfQxa3MnolgCykY1jI-10" style="edgeStyle=orthogonalEdgeStyle;rounded=0;orthogonalLoop=1;jettySize=auto;html=1;entryX=0;entryY=0.5;entryDx=0;entryDy=0;" parent="1" source="p5mmg8NYIvlORsanFq0I-13" target="yiOfQxa3MnolgCykY1jI-3" edge="1">
          <mxGeometry relative="1" as="geometry" />
        </mxCell>
        <mxCell id="p5mmg8NYIvlORsanFq0I-13" value="&lt;font style=&quot;font-size: 16px;&quot;&gt;&lt;b style=&quot;&quot;&gt;crm_sales_details&lt;/b&gt;&lt;/font&gt;" style="rounded=1;whiteSpace=wrap;html=1;fillColor=#ffe6cc;strokeColor=#d79b00;" parent="1" vertex="1">
          <mxGeometry x="370" y="280" width="180" height="40" as="geometry" />
        </mxCell>
        <mxCell id="yiOfQxa3MnolgCykY1jI-11" style="edgeStyle=orthogonalEdgeStyle;rounded=0;orthogonalLoop=1;jettySize=auto;html=1;" parent="1" source="p5mmg8NYIvlORsanFq0I-14" target="yiOfQxa3MnolgCykY1jI-4" edge="1">
          <mxGeometry relative="1" as="geometry" />
        </mxCell>
        <mxCell id="p5mmg8NYIvlORsanFq0I-14" value="&lt;font style=&quot;font-size: 16px;&quot;&gt;&lt;b style=&quot;&quot;&gt;crm_cust_info&lt;/b&gt;&lt;/font&gt;" style="rounded=1;whiteSpace=wrap;html=1;fillColor=#ffe6cc;strokeColor=#d79b00;" parent="1" vertex="1">
          <mxGeometry x="370" y="340" width="180" height="40" as="geometry" />
        </mxCell>
        <mxCell id="yiOfQxa3MnolgCykY1jI-12" style="edgeStyle=orthogonalEdgeStyle;rounded=0;orthogonalLoop=1;jettySize=auto;html=1;entryX=0;entryY=0.5;entryDx=0;entryDy=0;" parent="1" source="p5mmg8NYIvlORsanFq0I-15" target="yiOfQxa3MnolgCykY1jI-5" edge="1">
          <mxGeometry relative="1" as="geometry" />
        </mxCell>
        <mxCell id="p5mmg8NYIvlORsanFq0I-15" value="&lt;font style=&quot;font-size: 16px;&quot;&gt;&lt;b style=&quot;&quot;&gt;crm_prd_info&lt;/b&gt;&lt;/font&gt;" style="rounded=1;whiteSpace=wrap;html=1;fillColor=#ffe6cc;strokeColor=#d79b00;" parent="1" vertex="1">
          <mxGeometry x="370" y="400" width="180" height="40" as="geometry" />
        </mxCell>
        <mxCell id="yiOfQxa3MnolgCykY1jI-14" style="edgeStyle=orthogonalEdgeStyle;rounded=0;orthogonalLoop=1;jettySize=auto;html=1;" parent="1" source="p5mmg8NYIvlORsanFq0I-19" target="yiOfQxa3MnolgCykY1jI-6" edge="1">
          <mxGeometry relative="1" as="geometry" />
        </mxCell>
        <mxCell id="p5mmg8NYIvlORsanFq0I-19" value="&lt;font style=&quot;font-size: 16px;&quot;&gt;&lt;b style=&quot;&quot;&gt;erp_cust_az12&lt;/b&gt;&lt;/font&gt;" style="rounded=1;whiteSpace=wrap;html=1;fillColor=#ffe6cc;strokeColor=#d79b00;" parent="1" vertex="1">
          <mxGeometry x="370" y="480" width="180" height="40" as="geometry" />
        </mxCell>
        <mxCell id="yiOfQxa3MnolgCykY1jI-15" style="edgeStyle=orthogonalEdgeStyle;rounded=0;orthogonalLoop=1;jettySize=auto;html=1;entryX=0;entryY=0.5;entryDx=0;entryDy=0;" parent="1" source="p5mmg8NYIvlORsanFq0I-20" target="yiOfQxa3MnolgCykY1jI-7" edge="1">
          <mxGeometry relative="1" as="geometry" />
        </mxCell>
        <mxCell id="p5mmg8NYIvlORsanFq0I-20" value="&lt;font style=&quot;font-size: 16px;&quot;&gt;&lt;b style=&quot;&quot;&gt;erp_loc_a101&lt;/b&gt;&lt;/font&gt;" style="rounded=1;whiteSpace=wrap;html=1;fillColor=#ffe6cc;strokeColor=#d79b00;" parent="1" vertex="1">
          <mxGeometry x="370" y="540" width="180" height="40" as="geometry" />
        </mxCell>
        <mxCell id="yiOfQxa3MnolgCykY1jI-16" style="edgeStyle=orthogonalEdgeStyle;rounded=0;orthogonalLoop=1;jettySize=auto;html=1;entryX=0;entryY=0.5;entryDx=0;entryDy=0;" parent="1" source="p5mmg8NYIvlORsanFq0I-21" target="yiOfQxa3MnolgCykY1jI-8" edge="1">
          <mxGeometry relative="1" as="geometry" />
        </mxCell>
        <mxCell id="p5mmg8NYIvlORsanFq0I-21" value="&lt;font style=&quot;font-size: 16px;&quot;&gt;&lt;b style=&quot;&quot;&gt;erp_px_cat_g1v2&lt;/b&gt;&lt;/font&gt;" style="rounded=1;whiteSpace=wrap;html=1;fillColor=#ffe6cc;strokeColor=#d79b00;" parent="1" vertex="1">
          <mxGeometry x="370" y="600" width="180" height="40" as="geometry" />
        </mxCell>
        <mxCell id="yiOfQxa3MnolgCykY1jI-1" value="" style="rounded=1;whiteSpace=wrap;html=1;fillColor=none;strokeColor=#666666;fontColor=#333333;" parent="1" vertex="1">
          <mxGeometry x="630" y="210" width="200" height="590" as="geometry" />
        </mxCell>
        <mxCell id="yiOfQxa3MnolgCykY1jI-2" value="&lt;font style=&quot;font-size: 20px;&quot;&gt;&lt;b&gt;Silver Layer&lt;/b&gt;&lt;/font&gt;" style="rounded=1;whiteSpace=wrap;html=1;fillColor=#f5f5f5;strokeColor=#666666;fontColor=#333333;" parent="1" vertex="1">
          <mxGeometry x="630" y="160" width="200" height="40" as="geometry" />
        </mxCell>
        <mxCell id="yiOfQxa3MnolgCykY1jI-3" value="&lt;font style=&quot;font-size: 16px;&quot;&gt;&lt;b style=&quot;&quot;&gt;crm_sales_details&lt;/b&gt;&lt;/font&gt;" style="rounded=1;whiteSpace=wrap;html=1;fillColor=#f5f5f5;strokeColor=#666666;fontColor=#333333;" parent="1" vertex="1">
          <mxGeometry x="640" y="280" width="180" height="40" as="geometry" />
        </mxCell>
        <mxCell id="yiOfQxa3MnolgCykY1jI-4" value="&lt;font style=&quot;font-size: 16px;&quot;&gt;&lt;b style=&quot;&quot;&gt;crm_cust_info&lt;/b&gt;&lt;/font&gt;" style="rounded=1;whiteSpace=wrap;html=1;fillColor=#f5f5f5;strokeColor=#666666;fontColor=#333333;" parent="1" vertex="1">
          <mxGeometry x="640" y="340" width="180" height="40" as="geometry" />
        </mxCell>
        <mxCell id="yiOfQxa3MnolgCykY1jI-5" value="&lt;font style=&quot;font-size: 16px;&quot;&gt;&lt;b style=&quot;&quot;&gt;crm_prd_info&lt;/b&gt;&lt;/font&gt;" style="rounded=1;whiteSpace=wrap;html=1;fillColor=#f5f5f5;strokeColor=#666666;fontColor=#333333;" parent="1" vertex="1">
          <mxGeometry x="640" y="400" width="180" height="40" as="geometry" />
        </mxCell>
        <mxCell id="yiOfQxa3MnolgCykY1jI-6" value="&lt;font style=&quot;font-size: 16px;&quot;&gt;&lt;b style=&quot;&quot;&gt;erp_cust_az12&lt;/b&gt;&lt;/font&gt;" style="rounded=1;whiteSpace=wrap;html=1;fillColor=#f5f5f5;strokeColor=#666666;fontColor=#333333;" parent="1" vertex="1">
          <mxGeometry x="640" y="480" width="180" height="40" as="geometry" />
        </mxCell>
        <mxCell id="yiOfQxa3MnolgCykY1jI-7" value="&lt;font style=&quot;font-size: 16px;&quot;&gt;&lt;b style=&quot;&quot;&gt;erp_loc_a101&lt;/b&gt;&lt;/font&gt;" style="rounded=1;whiteSpace=wrap;html=1;fillColor=#f5f5f5;strokeColor=#666666;fontColor=#333333;" parent="1" vertex="1">
          <mxGeometry x="640" y="540" width="180" height="40" as="geometry" />
        </mxCell>
        <mxCell id="yiOfQxa3MnolgCykY1jI-8" value="&lt;font style=&quot;font-size: 16px;&quot;&gt;&lt;b style=&quot;&quot;&gt;erp_px_cat_g1v2&lt;/b&gt;&lt;/font&gt;" style="rounded=1;whiteSpace=wrap;html=1;fillColor=#f5f5f5;strokeColor=#666666;fontColor=#333333;" parent="1" vertex="1">
          <mxGeometry x="640" y="600" width="180" height="40" as="geometry" />
        </mxCell>
        <mxCell id="GRexoWNrnvMnqcpKEMhW-1" value="" style="rounded=1;whiteSpace=wrap;html=1;fillColor=none;strokeColor=#d6b656;" vertex="1" parent="1">
          <mxGeometry x="910" y="210" width="200" height="590" as="geometry" />
        </mxCell>
        <mxCell id="GRexoWNrnvMnqcpKEMhW-2" value="&lt;font style=&quot;font-size: 20px;&quot;&gt;&lt;b&gt;Gold Layer&lt;/b&gt;&lt;/font&gt;" style="rounded=1;whiteSpace=wrap;html=1;fillColor=#fff2cc;strokeColor=#d6b656;" vertex="1" parent="1">
          <mxGeometry x="910" y="160" width="200" height="40" as="geometry" />
        </mxCell>
        <mxCell id="GRexoWNrnvMnqcpKEMhW-3" value="&lt;font style=&quot;font-size: 16px;&quot;&gt;&lt;b style=&quot;&quot;&gt;fact_sales&lt;/b&gt;&lt;/font&gt;" style="rounded=1;whiteSpace=wrap;html=1;fillColor=#fff2cc;strokeColor=#d6b656;" vertex="1" parent="1">
          <mxGeometry x="920" y="280" width="180" height="40" as="geometry" />
        </mxCell>
        <mxCell id="GRexoWNrnvMnqcpKEMhW-6" value="&lt;font style=&quot;font-size: 16px;&quot;&gt;&lt;b style=&quot;&quot;&gt;dim_customers&lt;/b&gt;&lt;/font&gt;" style="rounded=1;whiteSpace=wrap;html=1;fillColor=#fff2cc;strokeColor=#d6b656;" vertex="1" parent="1">
          <mxGeometry x="920" y="440" width="180" height="40" as="geometry" />
        </mxCell>
        <mxCell id="GRexoWNrnvMnqcpKEMhW-8" value="&lt;font style=&quot;font-size: 16px;&quot;&gt;&lt;b style=&quot;&quot;&gt;dim_products&lt;/b&gt;&lt;/font&gt;" style="rounded=1;whiteSpace=wrap;html=1;fillColor=#fff2cc;strokeColor=#d6b656;" vertex="1" parent="1">
          <mxGeometry x="920" y="600" width="180" height="40" as="geometry" />
        </mxCell>
        <mxCell id="GRexoWNrnvMnqcpKEMhW-9" value="" style="endArrow=classic;html=1;rounded=0;exitX=1;exitY=0.5;exitDx=0;exitDy=0;entryX=0;entryY=0.5;entryDx=0;entryDy=0;" edge="1" parent="1" source="yiOfQxa3MnolgCykY1jI-3" target="GRexoWNrnvMnqcpKEMhW-3">
          <mxGeometry width="50" height="50" relative="1" as="geometry">
            <mxPoint x="840" y="340" as="sourcePoint" />
            <mxPoint x="890" y="290" as="targetPoint" />
          </mxGeometry>
        </mxCell>
        <mxCell id="GRexoWNrnvMnqcpKEMhW-10" value="" style="endArrow=classic;html=1;rounded=0;exitX=1;exitY=0.5;exitDx=0;exitDy=0;entryX=0;entryY=0.5;entryDx=0;entryDy=0;jumpStyle=gap;" edge="1" parent="1" source="yiOfQxa3MnolgCykY1jI-4" target="GRexoWNrnvMnqcpKEMhW-6">
          <mxGeometry width="50" height="50" relative="1" as="geometry">
            <mxPoint x="860" y="380" as="sourcePoint" />
            <mxPoint x="960" y="380" as="targetPoint" />
          </mxGeometry>
        </mxCell>
        <mxCell id="GRexoWNrnvMnqcpKEMhW-11" value="" style="endArrow=classic;html=1;rounded=0;exitX=1;exitY=0.5;exitDx=0;exitDy=0;entryX=0;entryY=0.5;entryDx=0;entryDy=0;jumpStyle=gap;" edge="1" parent="1" source="yiOfQxa3MnolgCykY1jI-5" target="GRexoWNrnvMnqcpKEMhW-8">
          <mxGeometry width="50" height="50" relative="1" as="geometry">
            <mxPoint x="870" y="440" as="sourcePoint" />
            <mxPoint x="970" y="440" as="targetPoint" />
          </mxGeometry>
        </mxCell>
        <mxCell id="GRexoWNrnvMnqcpKEMhW-12" value="" style="endArrow=classic;html=1;rounded=0;exitX=1;exitY=0.5;exitDx=0;exitDy=0;entryX=0;entryY=0.5;entryDx=0;entryDy=0;jumpStyle=gap;" edge="1" parent="1" source="yiOfQxa3MnolgCykY1jI-6" target="GRexoWNrnvMnqcpKEMhW-6">
          <mxGeometry width="50" height="50" relative="1" as="geometry">
            <mxPoint x="850" y="510" as="sourcePoint" />
            <mxPoint x="950" y="510" as="targetPoint" />
          </mxGeometry>
        </mxCell>
        <mxCell id="GRexoWNrnvMnqcpKEMhW-13" value="" style="endArrow=classic;html=1;rounded=0;exitX=1;exitY=0.5;exitDx=0;exitDy=0;entryX=0;entryY=0.5;entryDx=0;entryDy=0;jumpStyle=gap;" edge="1" parent="1" source="yiOfQxa3MnolgCykY1jI-7" target="GRexoWNrnvMnqcpKEMhW-6">
          <mxGeometry width="50" height="50" relative="1" as="geometry">
            <mxPoint x="860" y="540" as="sourcePoint" />
            <mxPoint x="960" y="540" as="targetPoint" />
          </mxGeometry>
        </mxCell>
        <mxCell id="GRexoWNrnvMnqcpKEMhW-14" value="" style="endArrow=classic;html=1;rounded=0;exitX=1;exitY=0.5;exitDx=0;exitDy=0;entryX=0;entryY=0.5;entryDx=0;entryDy=0;jumpStyle=gap;" edge="1" parent="1" source="yiOfQxa3MnolgCykY1jI-8" target="GRexoWNrnvMnqcpKEMhW-8">
          <mxGeometry width="50" height="50" relative="1" as="geometry">
            <mxPoint x="850" y="610" as="sourcePoint" />
            <mxPoint x="950" y="610" as="targetPoint" />
          </mxGeometry>
        </mxCell>
      </root>
    </mxGraphModel>
  </diagram>
</mxfile>
